<svg width="20" height="20" viewBox="0 0 20 20" fill="none" xmlns="http://www.w3.org/2000/svg">
<g id="Career">
<g id="Vector">
<path d="M18.1707 6.32434L9.6403 2.66612C9.26256 2.50452 8.8323 2.50452 8.45456 2.66612L0.903808 5.9264C0.235189 6.21526 0.235189 7.16264 0.903808 7.45352L8.45859 10.73C8.83633 10.8936 9.26457 10.8956 9.64433 10.734L16.7224 7.71814C17.0517 7.57674 17.4193 7.81914 17.4193 8.1787V14.0912C17.4193 14.5053 17.7021 14.8891 18.1122 14.9558C18.6333 15.0406 19.0838 14.6407 19.0838 14.1357V7.70198C19.0838 7.10204 18.7262 6.56068 18.1748 6.32232L18.1707 6.32434Z" fill="#505A67"/>
<path d="M3.07927 9.38061V13.9963C3.07927 14.5942 3.4348 15.1356 3.98222 15.3719L8.49288 17.3273C8.87062 17.4909 9.29885 17.4929 9.67861 17.3313L14.1893 15.4083C14.7427 15.1719 15.1003 14.6286 15.1003 14.0286V9.41899L9.87455 11.645C9.36955 11.8612 8.79789 11.8591 8.29491 11.641L3.07726 9.37859L3.07927 9.38061Z" fill="#505A67"/>
</g>
</g>
</svg>
